<svg width="16" height="16" viewBox="0 0 16 16" fill="none" xmlns="http://www.w3.org/2000/svg">
<path d="M5.89595 12.6942L7.8217 15C7.8217 15 11.2244 11.1583 12.4497 9.47835C13.2692 8.39638 13.6302 7.04987 13.4579 5.71671C13.3884 5.05178 13.1843 4.4068 12.8572 3.81881C12.5302 3.23096 12.0867 2.71172 11.5524 2.29103C9.81084 0.902196 7.7987 0.627904 5.7346 1.4972C4.68174 1.94749 3.80374 2.71192 3.22772 3.67977C2.65182 4.64772 2.40787 5.76858 2.53125 6.88018C2.61042 7.76208 2.9263 8.60825 3.44735 9.33431C4.26157 10.4542 5.07779 11.5742 5.89595 12.6942Z" stroke="black"/>
<circle cx="8" cy="6" r="2" stroke="black"/>
</svg>
