<svg width="25" height="24" viewBox="0 0 25 24" fill="none" xmlns="http://www.w3.org/2000/svg">
<path d="M13.0001 4L17.8511 8.38632M13.0001 4V14.0381M13.0001 4L8.14881 8.38632M21.5 14.038V15.0953C21.5 15.781 21.5 16.3468 21.4624 16.8076C21.4234 17.2864 21.3396 17.7265 21.1295 18.1398C20.8034 18.7809 20.2833 19.302 19.6437 19.6287C19.2312 19.8393 18.7919 19.9233 18.3142 19.9624C17.8541 20 17.2895 20 16.6053 20H9.39486C8.71069 20 8.14589 20 7.68597 19.9624C7.20813 19.9233 6.76898 19.8393 6.35646 19.6287C5.71669 19.302 5.19655 18.7809 4.87055 18.1398C4.66037 17.7265 4.57656 17.2864 4.53757 16.8076C4.5 16.3466 4.5 15.7809 4.5 15.0953V14.038" stroke="#FF9100" stroke-width="1.5"/>
</svg>
