<svg width="24" height="24" viewBox="0 0 24 24" fill="none" xmlns="http://www.w3.org/2000/svg">
<path d="M9.71094 9.50141L14.6331 6.36914" stroke="white" stroke-width="2"/>
<path d="M14.5721 6.60047C15.2416 7.74596 16.7379 8.14047 17.8931 7.48149C19.0484 6.82251 19.4487 5.34646 18.7791 4.20097C18.1096 3.05548 16.6155 2.65992 15.4602 3.31867C14.305 3.97765 13.9027 5.45498 14.5721 6.60047Z" stroke="white" stroke-width="2"/>
<path d="M4.13828 14.7147C5.65465 16.2128 8.12757 16.2142 9.64201 14.7182C11.1564 13.2219 11.1532 10.7808 9.63682 9.28265C8.12045 7.78448 5.64924 7.78143 4.13481 9.27745C2.6204 10.7735 2.6219 13.2165 4.13828 14.7147Z" stroke="white" stroke-width="2"/>
<path d="M10.1602 14.4238L14.6348 17.5561" stroke="white" stroke-width="2"/>
<path d="M17.897 16.5183C16.7418 15.8593 15.2455 16.2538 14.576 17.3993C13.9066 18.5448 14.3089 20.0222 15.4641 20.6811C16.6194 21.3399 18.1135 20.9443 18.783 19.7988C19.4526 18.6533 19.0523 17.1773 17.897 16.5183Z" stroke="white" stroke-width="2"/>
</svg>
