<svg width="24" height="24" viewBox="0 0 24 24" fill="none" xmlns="http://www.w3.org/2000/svg">
<path opacity="0.5" d="M11 7.99951C11 7.44723 11.4477 6.99951 12 6.99951C12.5523 6.99951 13 7.44723 13 7.99951C13 8.5518 12.5523 8.99951 12 8.99951C11.4477 8.99951 11 8.5518 11 7.99951ZM11 11.9995C11 11.4472 11.4477 10.9995 12 10.9995C12.5523 10.9995 13 11.4472 13 11.9995V15.9995C13 16.5518 12.5523 16.9995 12 16.9995C11.4477 16.9995 11 16.5518 11 15.9995V11.9995ZM12 1.99951C6.48 1.99951 2 6.47951 2 11.9995C2 17.5195 6.48 21.9995 12 21.9995C17.52 21.9995 22 17.5195 22 11.9995C22 6.47951 17.52 1.99951 12 1.99951Z" fill="#FF9100"/>
</svg>
