<svg width="60" height="24" viewBox="0 0 60 24" fill="none" xmlns="http://www.w3.org/2000/svg">
<path d="M10.9631 3.0942C10.2599 3.90485 9.1348 4.54424 8.00967 4.4529C7.86903 3.3568 8.41987 2.1922 9.06448 1.47288C9.76768 0.639391 10.9983 0.0456708 11.9945 0C12.1117 1.14177 11.6546 2.2607 10.9631 3.0942ZM11.9828 4.66984C10.3537 4.5785 8.959 5.57184 8.18547 5.57184C7.40023 5.57184 6.21649 4.71551 4.92728 4.73834C3.25131 4.76118 1.69254 5.68601 0.836972 7.1589C-0.921042 10.1047 0.379889 14.4662 2.0793 16.8639C2.91143 18.0514 3.90764 19.353 5.22029 19.3073C6.46262 19.2617 6.95486 18.5195 8.45503 18.5195C9.96692 18.5195 10.4006 19.3073 11.7132 19.2845C13.0727 19.2617 13.9283 18.0971 14.7604 16.9096C15.7098 15.5623 16.0965 14.2493 16.12 14.1808C16.0965 14.1579 13.4947 13.1874 13.4712 10.2645C13.4478 7.82112 15.5222 6.65652 15.616 6.58801C14.444 4.89819 12.6157 4.71551 11.9828 4.66984ZM21.394 1.35871V19.1589H24.2303V13.0733H28.1565C31.7429 13.0733 34.2627 10.6755 34.2627 7.20457C34.2627 3.73359 31.7897 1.35871 28.2503 1.35871H21.394ZM24.2303 3.68792H27.5002C29.9614 3.68792 31.3678 4.9667 31.3678 7.21598C31.3678 9.46527 29.9614 10.7555 27.4885 10.7555H24.2303V3.68792ZM39.443 19.2959C41.2244 19.2959 42.8769 18.4167 43.627 17.0238H43.6856V19.1589H46.3109V10.2988C46.3109 7.72978 44.2013 6.07422 40.9549 6.07422C37.9428 6.07422 35.716 7.75262 35.6339 10.059H38.1889C38.3999 8.96289 39.443 8.24358 40.8728 8.24358C42.6074 8.24358 43.5802 9.0314 43.5802 10.4814V11.4634L40.0407 11.6689C36.7473 11.863 34.9659 13.176 34.9659 15.4596C34.9659 17.7659 36.8059 19.2959 39.443 19.2959ZM40.2048 17.1836C38.6929 17.1836 37.7318 16.4757 37.7318 15.3911C37.7318 14.2721 38.6577 13.6213 40.4274 13.5186L43.5802 13.3245V14.3292C43.5802 15.9962 42.1269 17.1836 40.2048 17.1836ZM49.8152 24C52.5812 24 53.8821 22.9724 55.019 19.8554L60 6.24548H57.1169L53.7766 16.7612H53.718L50.3778 6.24548H47.4126L52.2179 19.2046L51.96 19.9924C51.5264 21.3283 50.8232 21.8421 49.5691 21.8421C49.3464 21.8421 48.9128 21.8192 48.737 21.7964V23.9315C48.9011 23.9772 49.6043 24 49.8152 24Z" fill="white"/>
</svg>
