<svg width="32" height="32" viewBox="0 0 32 32" fill="none" xmlns="http://www.w3.org/2000/svg">
<path fill-rule="evenodd" clip-rule="evenodd" d="M12.5996 5.1499C12.5996 4.59762 12.1519 4.1499 11.5996 4.1499C11.0473 4.1499 10.5996 4.59762 10.5996 5.1499V5.84985C8.05928 5.85006 6 7.90948 6 10.4499V11.1499H26V10.4499C26 7.97622 24.0475 5.95862 21.5996 5.85411V5.1499C21.5996 4.59762 21.1519 4.1499 20.5996 4.1499C20.0473 4.1499 19.5996 4.59762 19.5996 5.1499V5.84985H12.5996V5.1499ZM26 13.1499H6V21.2499C6 23.7904 8.05949 25.8499 10.6 25.8499H21.4C23.9405 25.8499 26 23.7904 26 21.2499V13.1499Z" fill="black"/>
</svg>
