<svg width="32" height="32" viewBox="0 0 32 32" fill="none" xmlns="http://www.w3.org/2000/svg">
<path d="M15.458 6.45868C15.7789 6.21666 16.2212 6.21667 16.542 6.45868L24.642 12.5691C24.8675 12.7391 25 13.0052 25 13.2876V24.0498C25 24.5469 24.5971 24.9498 24.1 24.9498H19.4237C18.9266 24.9498 18.5237 24.5469 18.5237 24.0498V18.4187C18.5237 17.9216 18.1207 17.5187 17.6237 17.5187H14.3763C13.8793 17.5187 13.4763 17.9216 13.4763 18.4187V24.0498C13.4763 24.5469 13.0734 24.9498 12.5763 24.9498H7.9C7.40294 24.9498 7 24.5469 7 24.0498V13.2876C7 13.0052 7.13255 12.7391 7.35799 12.5691L15.458 6.45868Z" fill="black" stroke="black" stroke-width="2"/>
</svg>
