<svg width="32" height="32" viewBox="0 0 32 32" fill="none" xmlns="http://www.w3.org/2000/svg">
<path fill-rule="evenodd" clip-rule="evenodd" d="M13.3346 8.07573C14.0234 7.3869 14.9578 7 15.932 7V7.00281C16.9062 7.00362 17.8402 7.39093 18.529 8.07976C19.2179 8.76859 19.6052 9.70254 19.606 10.6768C19.6052 11.651 19.2175 12.585 18.5283 13.2734C17.8388 13.9618 16.9043 14.3483 15.93 14.3477C14.956 14.3473 14.0218 13.9598 13.3332 13.2708C12.6446 12.5815 12.2579 11.6472 12.2581 10.6729C12.2585 9.69871 12.6456 8.76456 13.3346 8.07573ZM23.8622 23.8882C23.8622 25.708 8 25.708 8 23.8882C8 22.0683 8.72294 20.2522 10.0097 18.9652C11.2966 17.6785 13.0419 16.9555 14.8617 16.9555H17.0004C18.8203 16.9555 20.5655 17.6785 21.8524 18.9652C23.1392 20.2522 23.8622 22.0683 23.8622 23.8882Z" fill="black"/>
<path d="M15.932 7H16.932V6H15.932V7ZM13.3346 8.07573L14.0416 8.78294L14.0417 8.78284L13.3346 8.07573ZM15.932 7.00281H14.932V8.00197L15.9312 8.00281L15.932 7.00281ZM18.529 8.07976L17.8219 8.78687L17.8219 8.78688L18.529 8.07976ZM19.606 10.6768L20.606 10.6776L20.606 10.676L19.606 10.6768ZM18.5283 13.2734L19.2349 13.981L19.2349 13.9809L18.5283 13.2734ZM15.93 14.3477L15.9306 13.3477H15.9304L15.93 14.3477ZM13.3332 13.2708L12.6258 13.9776L12.6259 13.9777L13.3332 13.2708ZM12.2581 10.6729L11.2581 10.6725V10.6727L12.2581 10.6729ZM10.0097 18.9652L9.30263 18.2581L9.30251 18.2582L10.0097 18.9652ZM21.8524 18.9652L22.5596 18.2582L22.5595 18.2581L21.8524 18.9652ZM15.932 6C14.6927 6 13.5039 6.49219 12.6275 7.36862L14.0417 8.78284C14.5429 8.28161 15.2229 8 15.932 8V6ZM16.932 7.00281V7H14.932V7.00281H16.932ZM19.2361 7.37265C18.36 6.49648 17.172 6.00385 15.9329 6.00281L15.9312 8.00281C16.6405 8.0034 17.3204 8.28538 17.8219 8.78687L19.2361 7.37265ZM20.606 10.676C20.605 9.4368 20.1123 8.24882 19.2361 7.37264L17.8219 8.78688C18.3234 9.28836 18.6054 9.96828 18.606 10.6776L20.606 10.676ZM19.2349 13.9809C20.1117 13.1051 20.605 11.917 20.606 10.6776L18.606 10.676C18.6054 11.385 18.3233 12.0648 17.8216 12.5659L19.2349 13.9809ZM15.9294 15.3477C17.1689 15.3485 18.3578 14.8567 19.2349 13.981L17.8217 12.5658C17.3198 13.0669 16.6396 13.3482 15.9306 13.3477L15.9294 15.3477ZM12.6259 13.9777C13.5019 14.8542 14.6903 15.3472 15.9296 15.3477L15.9304 13.3477C15.2217 13.3474 14.5418 13.0655 14.0405 12.5639L12.6259 13.9777ZM11.2581 10.6727C11.2578 11.9121 11.7498 13.1008 12.6258 13.9776L14.0406 12.564C13.5393 12.0623 13.2579 11.3822 13.2581 10.6731L11.2581 10.6727ZM12.6276 7.36852C11.751 8.24486 11.2586 9.43327 11.2581 10.6725L13.2581 10.6734C13.2583 9.96416 13.5401 9.28426 14.0416 8.78294L12.6276 7.36852ZM7 23.8882C7 24.4028 7.28837 24.7626 7.52757 24.9675C7.76441 25.1704 8.05092 25.3118 8.31553 25.4159C8.85286 25.6272 9.55892 25.7828 10.3273 25.9003C11.882 26.1381 13.9194 26.253 15.9311 26.253C17.9428 26.253 19.9802 26.1381 21.5349 25.9003C22.3033 25.7828 23.0093 25.6272 23.5467 25.4159C23.8113 25.3118 24.0978 25.1704 24.3346 24.9675C24.5738 24.7626 24.8622 24.4028 24.8622 23.8882H22.8622C22.8622 23.601 23.0266 23.4544 23.0335 23.4486C23.038 23.4447 22.9837 23.4882 22.8146 23.5547C22.4844 23.6845 21.9512 23.8134 21.2325 23.9233C19.8131 24.1404 17.8849 24.253 15.9311 24.253C13.9772 24.253 12.0491 24.1404 10.6297 23.9233C9.91094 23.8134 9.37776 23.6846 9.04763 23.5547C8.87851 23.4882 8.82423 23.4448 8.82871 23.4486C8.83555 23.4545 9 23.601 9 23.8882H7ZM9.30251 18.2582C7.82076 19.7402 7 21.8139 7 23.8882H9C9 22.3227 9.62512 20.7642 10.7168 19.6723L9.30251 18.2582ZM14.8617 15.9555C12.7766 15.9555 10.7771 16.7839 9.30263 18.2581L10.7167 19.6724C11.8162 18.5731 13.3071 17.9555 14.8617 17.9555V15.9555ZM17.0004 15.9555H14.8617V17.9555H17.0004V15.9555ZM22.5595 18.2581C21.085 16.7839 19.0855 15.9555 17.0004 15.9555V17.9555C18.555 17.9555 20.0459 18.5731 21.1454 19.6724L22.5595 18.2581ZM24.8622 23.8882C24.8622 21.814 24.0413 19.7401 22.5596 18.2582L21.1453 19.6723C22.237 20.7642 22.8622 22.3227 22.8622 23.8882H24.8622Z" fill="black"/>
</svg>
