<svg width="32" height="32" viewBox="0 0 32 32" fill="none" xmlns="http://www.w3.org/2000/svg">
<path fill-rule="evenodd" clip-rule="evenodd" d="M7.70947 8.6675C7.70919 6.59624 9.38821 4.91699 11.4595 4.91699H13.8661C14.4184 4.91699 14.8661 5.36471 14.8661 5.91699V6.50591C14.8661 7.43023 15.5966 8.15616 16.4994 8.15616C17.4024 8.15616 18.1327 7.43047 18.1327 6.50591V5.91699C18.1327 5.36471 18.5804 4.91699 19.1327 4.91699H21.5401C23.6109 4.91699 25.2898 6.59561 25.2901 8.66648L25.2904 11.2502H7.71V12.5493L7.70947 8.6675ZM7.7101 13.2502L7.71147 23.3342C7.71175 25.405 9.3906 27.0837 11.4615 27.0837H21.5421C23.6133 27.0837 25.2923 25.4044 25.2921 23.3332L25.2907 13.2502H7.7101Z" fill="black"/>
</svg>
