<svg width="32" height="32" viewBox="0 0 32 32" fill="none" xmlns="http://www.w3.org/2000/svg">
<path fill-rule="evenodd" clip-rule="evenodd" d="M11.4595 4.91683C9.38821 4.91683 7.70919 6.59607 7.70947 8.66734L7.71147 23.334C7.71175 25.4049 9.3906 27.0835 11.4615 27.0835L21.5421 27.0835C23.6133 27.0835 25.2923 25.4043 25.2921 23.333L25.2901 8.66632C25.2898 6.59545 23.6109 4.91683 21.5401 4.91683L19.1327 4.91683C18.5804 4.91683 18.1327 5.36454 18.1327 5.91683L18.1327 6.50575C18.1327 7.43031 17.4024 8.15599 16.4994 8.15599C15.5966 8.15599 14.8661 7.43007 14.8661 6.50575L14.8661 5.91683C14.8661 5.36454 14.4184 4.91683 13.8661 4.91683L11.4595 4.91683ZM9.70947 8.66707C9.70934 7.70047 10.4929 6.91683 11.4595 6.91683L12.8887 6.91683C13.0905 8.73986 14.6191 10.156 16.4994 10.156C18.3799 10.156 19.9084 8.74009 20.1101 6.91683L21.5401 6.91683C22.5065 6.91683 23.2899 7.70018 23.2901 8.66659L23.2904 11.2502L9.70982 11.2502L9.70947 8.66707ZM9.7101 13.2502L9.71147 23.3337C9.7116 24.3001 10.4951 25.0835 11.4615 25.0835L21.5421 25.0835C22.5087 25.0835 23.2922 24.2999 23.2921 23.3333L23.2907 13.2502L9.7101 13.2502Z" fill="black"/>
</svg>
