<svg width="14" height="14" viewBox="0 0 14 14" fill="none" xmlns="http://www.w3.org/2000/svg">
<path d="M12.542 0.900059C11.9629 0.323593 11.1792 0 10.3622 0C9.54512 0 8.76129 0.323617 8.18221 0.900059L0.814213 8.26559C0.592362 8.48551 0.447893 8.77166 0.403015 9.08083L0.0148025 11.7954H0.0146648C-0.0446881 12.2081 0.0778744 12.6263 0.350536 12.9418C0.623064 13.2574 1.01912 13.4392 1.4361 13.4405C1.50551 13.4405 1.57477 13.4355 1.64335 13.4257L4.35788 13.0375C4.66593 12.9929 4.95141 12.8504 5.17231 12.6312L11.3755 6.42722L12.5419 5.26001C13.1183 4.6808 13.4417 3.89711 13.4417 3.08007C13.4417 2.26318 13.1182 1.47935 12.5419 0.900272L12.542 0.900059ZM4.30389 11.7582C4.27222 11.7901 4.23091 11.8106 4.18629 11.8166L1.47177 12.2048V12.2049C1.40759 12.2152 1.34232 12.1935 1.29743 12.1464C1.25088 12.1011 1.22885 12.0363 1.23807 11.972L1.62629 9.25751H1.62642C1.63303 9.21385 1.65355 9.17351 1.68481 9.14238L7.45371 3.36785L10.0745 5.9886L4.30389 11.7582ZM11.6708 4.39122L10.9437 5.11833L8.32545 2.49842L9.05255 1.77132C9.39972 1.42401 9.8704 1.22901 10.3615 1.22887C10.8524 1.22887 11.3232 1.42373 11.6704 1.77089C12.0177 2.11792 12.2127 2.58874 12.2129 3.07968C12.2129 3.57062 12.018 4.04158 11.6708 4.38875V4.39122Z" fill="#BDBDBD"/>
</svg>
