<svg width="24" height="24" viewBox="0 0 24 24" fill="none" xmlns="http://www.w3.org/2000/svg">
<path d="M17.8233 6.22543e-05C19.3086 6.22543e-05 20.5576 1.02303 20.933 2.39483H22.608C22.8312 2.3939 23.0456 2.48232 23.2036 2.64011C23.3614 2.79807 23.4496 3.01231 23.4489 3.23551C23.4479 3.45778 23.359 3.67034 23.2012 3.82679C23.0436 3.98327 22.8301 4.07076 22.608 4.06982H20.9361C20.5633 5.44536 19.3114 6.47282 17.8233 6.47282C16.3501 6.47282 15.1086 5.46536 14.7218 4.11079L0.835804 4.06985H0.835991C0.613714 4.06947 0.40097 3.98067 0.244131 3.82345C0.087471 3.66604 -0.000394821 3.45274 -2.09808e-05 3.23064C0.00053978 3.00911 0.0885925 2.79674 0.245253 2.64007C0.402098 2.48341 0.614281 2.39517 0.836012 2.3948L14.6991 2.43574C15.0599 1.04283 16.3229 0 17.8233 0L17.8233 6.22543e-05ZM17.8233 1.67509C16.9507 1.67509 16.2612 2.36305 16.2612 3.23551C16.2612 4.10815 16.9506 4.79764 17.8233 4.79764C18.696 4.79764 19.3837 4.1082 19.3837 3.23551C19.3837 2.36281 18.6959 1.67509 17.8233 1.67509ZM8.87576 8.09382C10.3857 8.09382 11.6564 9.13492 12.0312 10.531H22.6083C22.8308 10.5303 23.0445 10.618 23.2021 10.7746C23.3599 10.9315 23.4487 11.1446 23.4492 11.3671C23.4496 11.5899 23.3612 11.804 23.2032 11.9614C23.0454 12.119 22.8314 12.207 22.6083 12.2061H12.0298C11.6538 13.6018 10.3847 14.645 8.87602 14.645C7.36739 14.645 6.0982 13.6018 5.72227 12.2061H0.836441C0.614164 12.2057 0.401421 12.1171 0.244579 11.9597C0.0879211 11.8023 5.34058e-05 11.5892 0.000425339 11.3671C0.000988007 11.1455 0.0890408 10.9332 0.245699 10.7765C0.402544 10.6198 0.614731 10.5316 0.836462 10.531H5.72085C6.09568 9.13491 7.36636 8.09381 8.87633 8.09381L8.87576 8.09382ZM8.87576 9.76885C7.98067 9.76885 7.27271 10.4719 7.27271 11.3671C7.27271 12.2622 7.98067 12.9701 8.87576 12.9701C9.77085 12.9701 10.4788 12.2622 10.4788 11.3671C10.4788 10.472 9.77085 9.76885 8.87576 9.76885ZM15.3845 16.6327C16.8926 16.6327 18.1634 17.6749 18.5399 19.0699H22.6083C22.8315 19.0691 23.0459 19.1574 23.2038 19.3153C23.3616 19.4731 23.4499 19.6875 23.4491 19.9107C23.4482 20.1328 23.3592 20.3456 23.2014 20.502C23.0438 20.6585 22.8303 20.7458 22.6082 20.7449H18.5416C18.1675 22.1434 16.8952 23.1888 15.3846 23.1888C13.8739 23.1888 12.6032 22.1434 12.2291 20.7449H0.836044C0.6147 20.7445 0.402517 20.6566 0.24605 20.5002C0.0893898 20.3439 0.000965118 20.1321 3.24249e-05 19.9107C-0.000715256 19.6883 0.0867729 19.4748 0.24362 19.317C0.400465 19.1592 0.613585 19.0704 0.836052 19.0699H12.2306C12.6071 17.675 13.8763 16.6326 15.3843 16.6326L15.3845 16.6327ZM15.3845 18.3077C14.4894 18.3077 13.7814 19.0157 13.7814 19.9107C13.7814 20.8058 14.4894 21.5138 15.3845 21.5138C16.2795 21.5138 16.9875 20.8058 16.9875 19.9107C16.9875 19.0157 16.2795 18.3077 15.3845 18.3077Z" fill="white"/>
</svg>
