<svg width="24" height="24" viewBox="0 0 24 24" fill="none" xmlns="http://www.w3.org/2000/svg">
<path d="M12.5738 21.2006H12.0938L11.9998 21.1621C11.725 21.0405 11.4925 20.84 11.3316 20.5861L9.52679 18.0382C8.43619 16.5022 7.34816 14.9662 6.26281 13.4302C5.56825 12.4345 5.14719 11.274 5.04166 10.0645C4.87719 8.53996 5.20237 7.00273 5.97005 5.67522C6.73788 4.34785 7.90826 3.29946 9.31171 2.6819C12.0631 1.48968 14.7453 1.86587 17.0668 3.77061C17.779 4.34757 18.3702 5.05969 18.8061 5.86592C19.2421 6.67232 19.5142 7.55689 19.6069 8.46882C19.8366 10.2972 19.3554 12.1439 18.2629 13.6278C16.6296 15.9318 14.9969 18.2358 13.3648 20.5398V20.5397C13.2 20.8169 12.9522 21.0352 12.6564 21.1638L12.5738 21.2006ZM12.3377 20.156C12.4035 20.0902 12.462 20.0174 12.5125 19.9391C14.1445 17.6351 15.7771 15.3311 17.4105 13.0271V13.0272C18.3478 11.7527 18.7601 10.1673 18.5625 8.59749C18.4856 7.81869 18.2556 7.06266 17.8856 6.37307C17.5156 5.68334 17.0128 5.07371 16.4063 4.57896C14.3769 2.91435 12.1306 2.59951 9.7285 3.64012C8.52743 4.17007 7.52632 5.06873 6.87047 6.20592C6.21448 7.34311 5.93779 8.65962 6.08056 9.96467C6.16935 10.9906 6.52466 11.9755 7.11153 12.8216C8.19181 14.3577 9.27983 15.8937 10.3755 17.4296C10.9798 18.2795 11.5826 19.1308 12.1842 19.9832C12.2283 20.0469 12.2798 20.1048 12.3378 20.156L12.3377 20.156ZM12.3185 12.1325H12.2916C11.5588 12.1131 10.8623 11.8088 10.3502 11.2845C9.83792 10.76 9.55023 10.0566 9.54797 9.32364C9.55707 8.58276 9.85948 7.87585 10.3888 7.35755C10.9182 6.83939 11.6315 6.55211 12.3723 6.5588C13.1047 6.57567 13.8018 6.87768 14.3152 7.40041C14.8285 7.92313 15.1179 8.62544 15.1217 9.3582C15.1151 10.097 14.8167 10.8032 14.2916 11.3228C13.7666 11.8426 13.0573 12.1336 12.3185 12.1325L12.3185 12.1325ZM12.3377 7.60129C11.8769 7.60049 11.4345 7.78209 11.107 8.10622C10.7767 8.42791 10.5887 8.86829 10.5847 9.3294C10.5851 9.78728 10.764 10.227 11.0834 10.555C11.4029 10.8831 11.8377 11.0737 12.2955 11.0861C12.7623 11.0923 13.2121 10.9122 13.5459 10.5858C13.8795 10.2592 14.0694 9.81341 14.0734 9.34664C14.071 8.88927 13.8904 8.45079 13.5699 8.12453C13.2493 7.79826 12.8142 7.60983 12.3569 7.59941H12.3377L12.3377 7.60129Z" fill="black"/>
</svg>
