<svg width="18" height="22" viewBox="0 0 18 22" fill="none" xmlns="http://www.w3.org/2000/svg">
<path opacity="0.3" fill-rule="evenodd" clip-rule="evenodd" d="M8.73255 21.5L5.84392 18.0413C4.61669 16.3613 3.39235 14.6813 2.17102 13.0015C1.38945 11.9124 0.91563 10.6431 0.796876 9.32027C0.611806 7.65288 0.977726 5.97157 1.84158 4.51965C2.70561 3.06788 4.02262 1.92124 5.6019 1.24581C8.69805 -0.0581434 11.7163 0.353295 14.3286 2.43655C15.13 3.06758 15.7953 3.84643 16.2858 4.72822C16.7764 5.6102 17.0826 6.57767 17.1869 7.57507C17.4454 9.57481 16.9039 11.5946 15.6745 13.2175C13.8366 15.7374 8.73255 21.5 8.73255 21.5ZM9 11C10.6569 11 12 9.65685 12 8C12 6.34315 10.6569 5 9 5C7.34315 5 6 6.34315 6 8C6 9.65685 7.34315 11 9 11Z" fill="#FF9100"/>
</svg>
