<svg width="24" height="23" viewBox="0 0 24 23" fill="none" xmlns="http://www.w3.org/2000/svg">
<path d="M4.50562 22.6982C4.90405 22.9888 5.3855 22.8975 5.97485 22.4658L11.7522 18.2324L17.5295 22.4658C18.1189 22.8975 18.6086 22.9888 18.9988 22.6982C19.3806 22.4077 19.4719 21.9263 19.2395 21.229L16.9734 14.439L22.7922 10.2554C23.3816 9.83203 23.614 9.39209 23.4563 8.92725C23.3069 8.479 22.8752 8.23828 22.1282 8.24658L14.9895 8.28809L12.8064 1.47314C12.5823 0.767578 12.2336 0.418945 11.7522 0.418945C11.2708 0.418945 10.9221 0.767578 10.698 1.47314L8.51489 8.28809L1.37622 8.24658C0.637451 8.23828 0.19751 8.479 0.0480956 8.92725C-0.109619 9.39209 0.122803 9.83203 0.712158 10.2554L6.53101 14.439L4.27319 21.229C4.03247 21.9263 4.12378 22.4077 4.50562 22.6982Z" fill="#BDBDBD"/>
</svg>
